<?xml version="1.0" standalone="no"?>
<!DOCTYPE svg PUBLIC "-//W3C//DTD SVG 20010904//EN"
 "http://www.w3.org/TR/2001/REC-SVG-20010904/DTD/svg10.dtd">
<svg version="1.0" xmlns="http://www.w3.org/2000/svg"
 width="1232.000000pt" height="1232.000000pt" viewBox="0 0 1232.000000 1232.000000"
 preserveAspectRatio="xMidYMid meet">
<metadata>
Created by potrace 1.14, written by Peter Selinger 2001-2017
</metadata>
<g transform="translate(0.000000,1232.000000) scale(0.100000,-0.100000)"
fill="#000000" stroke="none">
<path d="M6285 11713 c4 -10 9 -25 12 -33 2 -8 -50 -143 -115 -300 -66 -157
-262 -627 -437 -1045 -174 -418 -323 -776 -332 -795 -8 -19 -19 -44 -24 -55
-4 -11 -202 -486 -440 -1055 -237 -569 -437 -1048 -444 -1065 -13 -28 -487
-1165 -630 -1510 -109 -262 -516 -1239 -530 -1270 -8 -16 -30 -70 -50 -120
-21 -49 -43 -103 -50 -120 -111 -254 -239 -623 -236 -683 1 -39 7 -48 100
-140 55 -53 321 -315 591 -582 271 -267 563 -555 650 -640 87 -85 378 -372
647 -636 268 -265 544 -536 613 -604 69 -67 234 -230 366 -361 133 -131 245
-239 250 -239 4 0 107 98 228 219 122 120 280 277 352 347 72 71 349 343 615
605 266 262 541 532 610 600 933 914 1329 1308 1329 1326 0 16 -112 352 -255
768 -54 154 -103 298 -110 320 -7 22 -46 132 -85 245 -76 219 -153 441 -200
580 -16 47 -57 164 -91 260 -55 158 -148 429 -179 520 -6 19 -16 44 -20 55 -5
11 -20 54 -34 95 -13 41 -61 181 -106 310 -45 129 -90 260 -100 290 -10 30
-51 147 -90 260 -39 113 -84 243 -100 290 -31 92 -55 159 -180 520 -45 129
-113 327 -151 440 -39 113 -74 214 -79 225 -4 11 -17 47 -29 80 -26 76 -87
253 -144 420 -25 72 -111 321 -192 555 -81 234 -185 535 -232 670 -47 135
-109 315 -138 400 -29 85 -90 261 -135 390 -45 129 -100 290 -123 358 l-42
122 -133 0 c-124 0 -134 -1 -127 -17z m362 -1405 c-3 -8 -6 -5 -6 6 -1 11 2
17 5 13 3 -3 4 -12 1 -19z m17 -33 c3 -8 1 -15 -4 -15 -6 0 -10 7 -10 15 0 8
2 15 4 15 2 0 6 -7 10 -15z m10 -41 c3 -8 2 -12 -4 -9 -6 3 -10 10 -10 16 0
14 7 11 14 -7z m44 -131 c19 -60 37 -117 41 -128 5 -11 14 -33 20 -48 14 -35
14 -37 -2 -37 -9 0 -24 38 -41 103 -28 99 -47 164 -61 200 -4 9 -3 17 2 17 4
0 23 -48 41 -107z m-204 -182 c4 -25 2 -31 -6 -23 -6 6 -12 28 -13 49 -1 21
-5 76 -8 123 l-6 85 14 -100 c8 -55 16 -115 19 -134z m53 -83 c-3 -8 -6 -5 -6
6 -1 11 2 17 5 13 3 -3 4 -12 1 -19z m18 -123 c4 -28 10 -66 15 -85 4 -19 8
-42 9 -50 0 -8 2 -27 5 -42 2 -16 0 -28 -5 -28 -10 0 -11 2 -14 45 -2 17 -8
65 -14 108 -12 84 -14 113 -7 106 3 -3 8 -27 11 -54z m52 -57 c-3 -8 -6 -5 -6
6 -1 11 2 17 5 13 3 -3 4 -12 1 -19z m23 -115 c7 -43 15 -85 17 -93 1 -8 5
-28 7 -45 5 -29 8 -44 22 -109 5 -21 3 -27 -7 -24 -8 3 -15 14 -15 26 -1 12
-2 23 -4 25 -3 4 -9 41 -15 97 -3 30 -12 88 -19 128 -7 39 -9 72 -6 72 3 0 12
-35 20 -77z m77 -225 c-3 -8 -6 -5 -6 6 -1 11 2 17 5 13 3 -3 4 -12 1 -19z
m50 -10 c-3 -8 -6 -5 -6 6 -1 11 2 17 5 13 3 -3 4 -12 1 -19z m-33 -44 c3 -8
2 -12 -4 -9 -6 3 -10 10 -10 16 0 14 7 11 14 -7z m134 -49 c0 -16 -2 -15 -8 5
-11 34 -11 60 0 35 5 -11 8 -29 8 -40z m-66 -52 c10 -48 23 -106 28 -128 63
-269 76 -334 65 -339 -6 -2 -12 1 -12 7 0 7 -6 39 -12 72 -7 33 -14 71 -17 85
-3 14 -12 54 -20 90 -9 36 -17 74 -19 85 -5 32 -34 178 -41 205 -3 14 -2 22 1
18 4 -4 16 -47 27 -95z m-55 50 c1 -10 9 -52 18 -93 8 -41 25 -119 35 -174 11
-54 22 -102 25 -106 3 -4 -1 -13 -8 -18 -10 -8 -13 -6 -14 7 -3 36 -35 217
-43 246 -5 17 -12 51 -15 76 -2 26 -8 54 -11 63 -3 9 -2 16 3 16 5 0 9 -8 10
-17z m148 -85 c7 -21 9 -38 5 -38 -7 0 -31 79 -29 97 1 9 5 -1 24 -59z m20
-66 c-3 -3 -11 0 -18 7 -9 10 -8 11 6 5 10 -3 15 -9 12 -12z m5 -16 c0 -2 12
-48 26 -103 15 -54 27 -102 29 -108 1 -5 5 -17 8 -25 4 -8 8 -25 10 -37 2 -12
6 -26 10 -29 4 -4 7 -14 7 -21 0 -19 -22 -12 -26 8 -2 7 -15 59 -29 114 -14
55 -27 109 -30 120 -2 11 -8 35 -14 53 -6 19 -6 32 0 32 5 0 9 -2 9 -4z m-43
-48 c-3 -8 -6 -5 -6 6 -1 11 2 17 5 13 3 -3 4 -12 1 -19z m10 -50 c-3 -7 -5
-2 -5 12 0 14 2 19 5 13 2 -7 2 -19 0 -25z m33 -99 c12 -45 23 -89 25 -98 1
-9 9 -36 16 -61 7 -25 13 -53 12 -62 0 -10 4 -18 10 -18 6 0 8 -3 4 -6 -3 -3
0 -27 8 -52 23 -82 24 -93 12 -89 -10 3 -18 25 -32 97 -3 14 -8 31 -11 39 -2
8 -7 30 -10 50 -3 20 -7 43 -10 51 -3 8 -8 26 -10 40 -3 14 -14 60 -25 104
-21 86 -21 86 -15 86 2 0 14 -36 26 -81z m88 30 c-3 -8 -7 -3 -11 10 -4 17 -3
21 5 13 5 -5 8 -16 6 -23z m-1113 -91 c-10 -110 -10 -111 -22 -115 -7 -3 -6
25 3 79 8 46 14 91 14 101 0 9 3 17 6 17 3 0 3 -37 -1 -82z m1123 47 c-3 -3
-9 2 -12 12 -6 14 -5 15 5 6 7 -7 10 -15 7 -18z m37 -123 c3 -7 4 -13 4 -15
-1 -1 5 -18 13 -37 8 -19 15 -38 16 -43 3 -18 26 -95 38 -129 8 -21 11 -38 8
-38 -4 0 -1 -7 6 -15 7 -8 10 -15 7 -15 -3 0 3 -25 14 -57 18 -54 18 -77 0
-57 -7 7 -47 144 -65 224 -2 8 -12 42 -22 75 -10 33 -19 65 -20 70 -1 6 -9 37
-18 70 -20 74 -19 98 1 30 8 -27 16 -56 18 -63z m-1429 3 c-1 -8 -8 -21 -16
-28 -10 -10 -11 -9 -4 3 5 8 9 18 10 23 3 14 4 17 8 17 2 0 3 -7 2 -15z m-48
-127 c-16 -46 -31 -90 -35 -98 -3 -8 -6 -18 -5 -22 1 -4 -5 -5 -12 -2 -11 4
-9 18 14 67 15 34 33 79 39 100 7 20 16 37 20 37 5 0 -5 -37 -21 -82z m239 10
c-3 -7 -5 -2 -5 12 0 14 2 19 5 13 2 -7 2 -19 0 -25z m-2 -30 c-2 -7 -6 -31
-9 -53 -3 -22 -9 -61 -14 -88 -5 -26 -10 -51 -10 -54 0 -4 -6 -9 -12 -11 -7
-3 -9 5 -5 20 3 12 7 34 9 48 3 14 5 25 6 25 2 0 9 37 13 70 3 29 14 55 22 55
3 0 3 -6 0 -12z m-73 -100 c-6 -6 -7 0 -4 19 5 21 7 23 10 9 2 -10 0 -22 -6
-28z m-20 -142 c-10 -54 -22 -91 -31 -94 -10 -3 -11 2 -6 18 4 12 9 30 10 39
2 9 4 17 5 19 3 3 5 9 21 82 20 95 22 40 1 -64z m-75 -98 c-3 -8 -6 -5 -6 6
-1 11 2 17 5 13 3 -3 4 -12 1 -19z m-7 -48 c0 -5 -2 -10 -4 -10 -3 0 -8 5 -11
10 -3 6 -1 10 4 10 6 0 11 -4 11 -10z m-75 -105 c-14 -49 -27 -99 -30 -110 -2
-11 -18 -76 -35 -145 -18 -69 -33 -130 -34 -137 -1 -7 -6 -16 -11 -20 -4 -4
-5 -3 -2 4 4 6 3 13 -1 15 -5 1 11 73 35 158 25 85 56 197 71 249 14 52 27 90
29 85 2 -5 -8 -49 -22 -99z m-68 63 c-3 -8 -6 -5 -6 6 -1 11 2 17 5 13 3 -3 4
-12 1 -19z m133 -8 c0 -5 -5 -10 -11 -10 -5 0 -7 5 -4 10 3 6 8 10 11 10 2 0
4 -4 4 -10z m-168 -107 c-16 -48 -44 -139 -62 -200 -20 -67 -38 -113 -46 -113
-8 0 3 45 35 138 26 76 50 143 53 148 2 5 13 35 23 66 10 32 21 56 23 53 2 -2
-9 -44 -26 -92z m153 70 c-42 -203 -72 -322 -80 -319 -5 2 -8 10 -7 17 2 8 19
75 38 149 19 74 37 142 39 150 2 8 4 16 4 18 1 1 3 2 5 2 3 0 3 -8 1 -17z
m-128 -135 c-3 -8 -6 -5 -6 6 -1 11 2 17 5 13 3 -3 4 -12 1 -19z m-114 -43
c-3 -9 -8 -14 -10 -11 -3 3 -2 9 2 15 9 16 15 13 8 -4z m94 -20 c0 -8 -4 -12
-9 -9 -5 3 -6 10 -3 15 9 13 12 11 12 -6z m-12 -35 c3 -5 1 -10 -4 -10 -6 0
-11 5 -11 10 0 6 2 10 4 10 3 0 8 -4 11 -10z m-124 -77 c-11 -37 -20 -71 -20
-76 -1 -4 -7 -20 -14 -35 -8 -15 -47 -125 -87 -244 -44 -131 -79 -218 -86
-218 -15 0 -10 35 8 58 7 8 12 17 10 19 -1 2 4 18 12 37 7 18 17 48 21 67 4
19 11 39 15 44 5 6 22 53 40 105 18 52 38 107 46 123 8 15 12 27 9 27 -3 0 2
11 11 25 9 14 13 25 9 25 -4 0 -3 6 2 13 6 6 16 34 23 60 7 26 15 46 17 43 2
-2 -5 -35 -16 -73z m116 42 c0 -8 -4 -15 -9 -15 -10 0 -11 14 -1 23 9 10 10 9
10 -8z m-34 -116 c-13 -51 -27 -97 -30 -103 -4 -6 -8 -17 -9 -26 -1 -8 -5 -24
-8 -35 -39 -142 -53 -181 -62 -178 -7 2 2 47 27 126 20 67 39 129 41 137 1 8
6 17 10 20 4 3 9 15 11 25 8 46 31 125 37 125 4 0 -4 -41 -17 -91z m1980
-5183 c3 -8 -2 -23 -11 -34 -132 -152 -402 -441 -357 -382 11 14 24 30 30 35
13 13 60 68 103 123 19 22 44 52 56 65 12 13 40 45 61 72 22 27 55 65 72 84
18 20 33 39 33 44 0 12 7 8 13 -7z m-2205 -234 c18 -22 46 -55 62 -74 142
-162 96 -122 -71 62 -128 141 -146 164 -142 177 4 11 46 -35 151 -165z m1900
35 c-40 -51 -77 -97 -83 -103 -5 -6 -19 -23 -30 -38 -45 -63 -57 -76 -68 -76
-8 1 -6 5 3 13 8 7 31 35 49 62 19 28 37 52 40 55 4 3 26 34 51 70 24 36 52
74 62 84 10 11 21 28 24 39 6 18 7 19 16 3 7 -13 -6 -36 -64 -109z m-1755 -33
c53 -72 97 -135 97 -140 0 -5 12 -20 26 -33 13 -13 29 -33 35 -45 13 -26 -43
35 -78 87 -14 20 -30 37 -34 37 -5 0 -9 4 -9 10 0 5 -36 55 -81 109 -46 58
-78 105 -74 111 9 14 -1 25 118 -136z m82 -26 c19 -29 38 -57 42 -63 26 -33
62 -95 55 -95 -5 0 -14 10 -20 23 -5 12 -19 33 -30 47 -59 73 -101 134 -96
142 8 12 9 10 49 -54z m1730 34 c-6 -4 -30 -32 -55 -62 -47 -58 -64 -78 -102
-122 -13 -15 -40 -46 -60 -70 -20 -24 -46 -54 -58 -68 l-21 -25 18 30 c10 17
22 35 28 41 5 6 21 26 35 44 14 18 32 41 40 50 8 10 48 62 89 115 53 69 77 93
85 85 7 -7 7 -13 1 -18z m-151 -5 c-9 -15 -75 -107 -91 -127 -7 -8 -20 -24
-29 -35 -9 -11 -6 -4 5 15 71 116 106 168 113 164 5 -3 5 -11 2 -17z m-1611
-155 c41 -54 82 -104 91 -111 9 -7 16 -18 16 -24 0 -12 -49 38 -112 114 -20
24 -48 57 -61 73 -22 25 -27 46 -12 46 1 0 37 -44 78 -98z m1505 -67 c-12 -14
-23 -25 -25 -25 -2 0 4 11 13 25 9 14 20 25 25 25 5 0 -1 -11 -13 -25z m-1246
-55 c14 -25 34 -59 44 -77 100 -166 96 -171 -10 -13 -52 79 -79 128 -72 132 6
4 11 6 12 5 1 -1 13 -22 26 -47z m1056 -83 c-44 -67 -85 -126 -91 -132 -12
-12 -4 3 32 60 14 22 26 42 26 45 3 22 92 157 101 153 7 -2 -21 -53 -68 -126z
m-125 -114 c-76 -128 -76 -114 0 35 12 23 28 42 34 42 7 0 -8 -35 -34 -77z
m-752 -17 c37 -78 35 -96 -2 -23 -12 23 -25 44 -29 47 -12 8 -22 50 -13 50 5
0 25 -33 44 -74z m657 -59 c-23 -45 -43 -84 -45 -87 -7 -8 9 54 17 65 4 6 15
33 25 62 12 34 23 49 31 46 10 -4 3 -27 -28 -86z m-572 6 c13 -29 20 -53 16
-53 -13 0 -63 111 -55 123 5 8 8 7 11 -3 3 -8 15 -39 28 -67z m-273 -26 c18
-21 50 -57 72 -78 22 -21 36 -39 32 -39 -5 0 -44 35 -87 78 -43 43 -72 79 -63
79 8 0 29 -18 46 -40z m1080 -46 c-37 -37 -77 -73 -88 -80 -11 -8 -1 5 22 28
23 23 59 62 79 86 20 25 41 42 46 39 5 -3 -21 -36 -59 -73z m-768 -21 c3 -5 1
-10 -4 -10 -6 0 -11 5 -11 10 0 6 2 10 4 10 3 0 8 -4 11 -10z m485 -14 c0 -3
-4 -8 -10 -11 -5 -3 -10 -1 -10 4 0 6 5 11 10 11 6 0 10 -2 10 -4z m-371 -130
c15 -62 13 -68 -9 -21 -21 45 -24 65 -11 65 5 0 14 -20 20 -44z m258 -26 c-11
-27 -22 -48 -24 -46 -8 8 22 96 33 96 8 0 6 -16 -9 -50z m-240 -62 c-3 -8 -6
-5 -6 6 -1 11 2 17 5 13 3 -3 4 -12 1 -19z"/>
</g>
</svg>
