<?xml version="1.0" standalone="no"?>
<!DOCTYPE svg PUBLIC "-//W3C//DTD SVG 20010904//EN"
 "http://www.w3.org/TR/2001/REC-SVG-20010904/DTD/svg10.dtd">
<svg version="1.0" xmlns="http://www.w3.org/2000/svg"
 width="4320.000000pt" height="4320.000000pt" viewBox="0 0 4320.000000 4320.000000"
 preserveAspectRatio="xMidYMid meet">
<metadata>
Created by potrace 1.14, written by Peter Selinger 2001-2017
</metadata>
<g transform="translate(0.000000,4320.000000) scale(0.100000,-0.100000)"
fill="#000000" stroke="none">
<path d="M0 21600 l0 -21600 21600 0 21600 0 0 21600 0 21600 -21600 0 -21600
0 0 -21600z m22785 17428 c31 -95 157 -477 280 -848 123 -371 395 -1195 605
-1830 415 -1254 685 -2071 1042 -3150 293 -884 622 -1880 890 -2690 115 -349
302 -914 415 -1255 113 -341 218 -658 233 -705 16 -47 129 -391 253 -765 124
-374 326 -986 450 -1360 124 -374 320 -966 435 -1315 116 -349 387 -1168 602
-1820 215 -652 492 -1489 615 -1860 123 -371 323 -976 445 -1345 122 -368 230
-695 240 -725 10 -30 116 -350 235 -710 221 -670 470 -1422 868 -2625 777
-2346 968 -2927 965 -2935 -4 -12 -9590 -9600 -9598 -9600 -3 0 -2177 2171
-4830 4825 -3321 3321 -4824 4831 -4822 4843 2 9 24 60 48 113 24 53 44 99 44
103 0 4 54 137 119 294 141 340 377 909 613 1477 94 226 241 581 328 790 87
209 280 675 430 1035 149 360 298 718 330 795 32 77 96 232 143 345 293 706
756 1823 797 1920 26 63 75 180 108 260 106 256 280 676 417 1005 73 176 171
412 218 525 133 320 330 796 637 1535 155 374 332 799 392 945 192 463 325
783 513 1235 100 242 287 692 415 1000 128 308 326 785 440 1060 114 275 290
698 390 940 100 242 287 692 415 1000 128 308 337 812 465 1120 128 308 326
785 440 1060 207 500 433 1044 793 1910 104 253 191 461 192 462 1 2 86 -18
188 -44 l187 -48 0 -35 c0 -20 -18 -209 -40 -420 -21 -212 -62 -610 -90 -885
-28 -275 -75 -742 -105 -1037 -62 -607 -148 -1454 -200 -1968 -20 -190 -47
-453 -60 -585 -13 -132 -43 -418 -65 -635 -22 -217 -78 -771 -125 -1230 -46
-459 -107 -1055 -134 -1325 -54 -528 -117 -1145 -156 -1530 -14 -132 -54 -528
-90 -880 -96 -949 -292 -2875 -320 -3150 -25 -240 -172 -1688 -265 -2605 -106
-1042 -171 -1689 -205 -2015 -36 -356 -214 -2107 -241 -2375 l-16 -155 97
-320 c53 -176 132 -437 175 -580 43 -143 214 -708 380 -1255 166 -547 373
-1233 461 -1525 88 -291 191 -631 229 -755 38 -124 157 -517 265 -875 382
-1262 457 -1512 525 -1735 204 -678 552 -1827 556 -1839 2 -8 6 -12 8 -10 2 2
90 290 196 639 105 349 223 736 260 860 72 236 132 436 460 1520 111 366 223
737 250 825 27 88 92 304 145 480 86 285 142 470 315 1040 108 357 184 606
278 920 55 182 137 452 182 600 45 149 103 342 130 430 27 88 101 333 165 545
64 212 159 527 212 700 l95 315 -11 135 c-12 152 -138 1683 -266 3250 -47 575
-103 1261 -125 1525 -22 264 -62 759 -90 1100 -28 341 -73 892 -100 1225 -106
1285 -138 1674 -250 3050 -50 608 -113 1377 -140 1710 -28 333 -77 936 -110
1340 -33 404 -78 953 -100 1220 -22 267 -56 679 -75 915 -19 237 -51 624 -70
860 -20 237 -78 952 -130 1590 -52 638 -109 1322 -125 1520 -16 198 -48 581
-70 850 -54 666 -154 1880 -190 2325 -17 201 -68 833 -115 1405 -74 904 -134
1627 -152 1830 l-5 61 68 27 c38 15 130 47 204 71 74 24 136 44 136 45 1 1 27
-77 59 -171z"/>
<path d="M23073 36875 c3 -11 31 -103 61 -205 62 -209 145 -494 181 -614 31
-109 476 -1617 570 -1931 71 -241 266 -901 591 -2005 86 -289 185 -624 220
-745 75 -254 260 -878 376 -1270 43 -148 106 -362 139 -475 33 -113 80 -270
104 -350 24 -80 64 -215 89 -300 25 -85 71 -240 101 -345 69 -233 375 -1271
520 -1760 58 -198 128 -434 155 -525 27 -91 119 -403 205 -695 86 -291 167
-566 180 -610 13 -44 83 -280 155 -525 72 -245 201 -681 286 -970 86 -289 207
-698 269 -910 63 -212 254 -860 425 -1440 171 -580 363 -1230 427 -1445 63
-214 128 -433 143 -485 28 -96 299 -1015 475 -1610 53 -179 171 -577 261 -885
91 -308 206 -697 256 -865 292 -989 352 -1194 378 -1280 57 -195 123 -419 271
-915 97 -328 152 -528 153 -560 l1 -50 -330 -365 c-182 -201 -655 -723 -1050
-1160 -396 -438 -1080 -1194 -1520 -1680 -440 -486 -1124 -1242 -1520 -1680
-929 -1026 -1734 -1917 -1854 -2050 -52 -58 -136 -150 -186 -205 -50 -55 -193
-212 -317 -350 -124 -137 -251 -278 -283 -313 -31 -34 -53 -62 -49 -62 13 0
7944 7933 7950 7952 3 9 -99 331 -226 715 -128 384 -253 763 -280 843 -94 283
-655 1982 -802 2425 -81 248 -231 700 -332 1005 -101 305 -365 1102 -586 1770
-220 668 -405 1226 -410 1240 -5 14 -110 331 -233 705 -124 374 -413 1247
-642 1940 -229 693 -499 1510 -600 1815 -101 305 -218 659 -260 785 -41 127
-158 480 -259 785 -266 802 -1189 3592 -1485 4490 -27 80 -132 397 -234 705
-102 308 -373 1127 -602 1820 -229 693 -431 1305 -449 1360 -19 55 -122 368
-231 695 -108 327 -199 597 -202 600 -3 3 -3 -4 0 -15z"/>
<path d="M22671 36134 c0 -11 3 -14 6 -6 3 7 2 16 -1 19 -3 4 -6 -2 -5 -13z"/>
<path d="M22681 36067 c-1 -16 6 -106 14 -200 8 -95 45 -532 80 -972 36 -440
81 -991 100 -1225 20 -234 49 -589 65 -790 17 -201 52 -637 80 -970 27 -333
72 -882 100 -1220 80 -980 174 -2128 260 -3185 45 -539 117 -1419 160 -1955
44 -536 94 -1139 110 -1340 17 -201 39 -473 50 -605 11 -132 29 -350 40 -485
11 -135 45 -549 75 -920 30 -371 71 -868 90 -1105 20 -236 47 -565 60 -730 26
-320 80 -968 120 -1460 14 -165 49 -604 80 -975 30 -371 66 -810 80 -975 13
-165 56 -687 95 -1160 38 -473 81 -997 95 -1165 99 -1199 116 -1421 117 -1465
0 -36 -36 -169 -131 -485 -275 -909 -324 -1069 -361 -1190 -21 -69 -102 -334
-179 -590 -77 -256 -164 -546 -194 -645 -30 -99 -105 -346 -167 -550 -61 -203
-133 -442 -160 -530 -27 -88 -88 -288 -135 -445 -48 -157 -144 -476 -215 -710
-70 -234 -181 -598 -245 -810 -64 -212 -175 -576 -245 -810 -71 -234 -174
-576 -230 -760 -194 -639 -257 -851 -250 -843 4 4 60 136 125 293 65 157 142
341 170 410 228 546 283 680 327 785 28 66 67 161 88 210 45 108 242 583 312
750 28 66 67 161 88 210 45 108 242 583 312 750 28 66 67 161 88 210 45 108
242 583 312 750 28 66 67 161 88 210 45 108 242 583 312 750 28 66 67 161 88
210 45 108 242 583 312 750 28 66 67 161 88 210 45 108 242 583 312 750 28 66
67 161 88 210 20 50 88 212 150 360 62 149 137 329 167 401 l54 132 -70 568
c-39 313 -95 769 -125 1014 -31 245 -105 848 -166 1340 -61 492 -140 1131
-175 1420 -36 289 -103 833 -150 1210 -47 377 -146 1178 -220 1780 -136 1096
-190 1535 -350 2825 -47 380 -126 1019 -175 1420 -123 992 -225 1817 -386
3115 -74 602 -139 1129 -144 1170 -5 41 -81 660 -170 1375 -211 1707 -289
2335 -416 3365 -180 1462 -292 2346 -293 2317z"/>
<path d="M22901 35264 c0 -11 3 -14 6 -6 3 7 2 16 -1 19 -3 4 -6 -2 -5 -13z"/>
<path d="M22911 35212 c-1 -11 116 -961 434 -3532 68 -553 145 -1171 170
-1375 25 -203 79 -642 121 -975 41 -333 101 -821 134 -1085 71 -574 314 -2546
480 -3885 66 -531 146 -1183 179 -1450 81 -651 351 -2834 501 -4050 44 -355
143 -1156 220 -1780 78 -624 150 -1207 160 -1295 11 -88 44 -360 75 -605 30
-245 98 -791 151 -1215 53 -423 96 -788 96 -810 0 -22 -14 -71 -30 -110 -16
-38 -85 -203 -152 -365 -67 -162 -157 -378 -200 -480 -43 -102 -133 -318 -200
-480 -67 -162 -157 -378 -200 -480 -43 -102 -133 -318 -200 -480 -67 -162
-157 -378 -200 -480 -43 -102 -133 -318 -200 -480 -67 -162 -157 -378 -200
-480 -43 -102 -133 -318 -200 -480 -67 -162 -157 -378 -200 -480 -43 -102
-133 -318 -200 -480 -67 -162 -162 -389 -210 -505 -103 -245 -395 -946 -550
-1320 -60 -143 -140 -336 -179 -429 -39 -93 -70 -171 -68 -172 1 -1 55 102
119 229 65 128 258 509 431 847 172 338 409 804 526 1035 118 231 255 501 306
600 51 99 174 340 273 535 262 517 733 1443 892 1755 76 149 269 529 430 845
161 316 354 697 430 845 76 149 221 435 324 637 l187 366 -221 1414 c-121 777
-293 1874 -380 2438 -88 564 -171 1095 -185 1180 -13 85 -58 373 -100 640 -42
267 -100 643 -130 835 -30 193 -73 465 -95 605 -22 140 -92 588 -155 995 -64
407 -123 785 -131 840 -8 55 -62 399 -119 765 -57 366 -196 1257 -309 1980
-113 723 -446 2856 -740 4740 -295 1884 -612 3918 -706 4520 -172 1105 -177
1135 -179 1112z"/>
<path d="M23092 34830 c0 -14 2 -19 5 -12 2 6 2 18 0 25 -3 6 -5 1 -5 -13z"/>
<path d="M23102 34775 c0 -16 2 -22 5 -12 2 9 2 23 0 30 -3 6 -5 -1 -5 -18z"/>
<path d="M23115 34700 c2 -25 27 -191 55 -370 28 -179 68 -437 90 -575 21
-137 64 -410 94 -605 31 -195 74 -472 96 -615 22 -143 63 -402 90 -575 27
-173 115 -736 195 -1250 214 -1374 1066 -6829 1555 -9960 110 -701 219 -1405
244 -1565 25 -159 70 -450 101 -645 31 -195 76 -483 100 -640 103 -666 293
-1881 365 -2340 241 -1540 370 -2378 370 -2411 0 -30 -46 -128 -223 -476 -123
-241 -311 -609 -417 -818 -106 -209 -243 -479 -305 -600 -62 -121 -189 -371
-283 -555 -229 -451 -689 -1357 -874 -1720 -83 -162 -218 -428 -301 -590 -82
-162 -207 -407 -277 -545 -70 -137 -205 -403 -300 -590 -95 -187 -223 -439
-285 -560 -276 -540 -517 -1019 -508 -1010 5 6 55 87 110 180 134 228 356 602
583 985 103 173 263 443 355 600 92 157 187 317 210 355 24 39 102 171 175
295 73 124 174 295 225 380 96 162 455 767 678 1145 71 121 159 270 196 330
36 61 71 119 77 130 6 11 77 133 159 270 82 138 220 372 308 520 190 320 484
818 835 1410 140 237 313 528 383 648 l129 218 -54 292 c-30 161 -76 405 -101
542 -25 138 -79 430 -120 650 -102 546 -328 1767 -414 2230 -39 209 -142 767
-230 1240 -88 473 -196 1056 -240 1295 -44 239 -105 570 -136 735 -31 165
-160 858 -286 1540 -126 682 -338 1823 -470 2535 -132 712 -253 1365 -269
1450 -255 1375 -394 2126 -455 2450 -40 217 -119 643 -175 945 -55 303 -145
789 -200 1080 -54 292 -123 665 -154 830 -85 460 -287 1550 -377 2030 -103
558 -127 689 -194 1050 -120 645 -138 736 -130 655z"/>
<path d="M23421 33714 c0 -11 3 -14 6 -6 3 7 2 16 -1 19 -3 4 -6 -2 -5 -13z"/>
<path d="M23551 33684 c0 -11 3 -14 6 -6 3 7 2 16 -1 19 -3 4 -6 -2 -5 -13z"/>
<path d="M23435 33650 c3 -19 25 -143 50 -275 24 -132 55 -301 69 -375 14 -74
97 -522 185 -995 88 -473 192 -1033 231 -1245 39 -212 154 -830 255 -1375 101
-544 220 -1188 265 -1430 45 -242 126 -681 181 -975 55 -294 124 -668 154
-830 97 -522 419 -2261 485 -2615 16 -88 95 -511 174 -940 80 -429 168 -904
196 -1055 28 -151 69 -369 90 -485 45 -243 248 -1341 385 -2075 51 -278 130
-703 175 -945 45 -242 119 -642 165 -890 46 -247 115 -621 154 -830 139 -751
282 -1521 400 -2155 198 -1066 186 -997 175 -1038 -8 -28 -494 -865 -583
-1002 -8 -14 -21 -34 -27 -45 -6 -11 -106 -182 -224 -380 -117 -198 -284 -479
-370 -625 -329 -556 -752 -1270 -968 -1635 -255 -430 -535 -904 -962 -1625
-161 -272 -334 -565 -385 -650 -51 -85 -159 -267 -240 -405 -81 -137 -212
-358 -290 -490 -308 -520 -311 -531 -20 -85 110 168 296 454 415 635 119 182
336 512 482 735 146 223 309 473 363 555 54 83 154 236 223 340 68 105 176
269 239 365 214 326 358 546 393 601 20 30 186 284 370 564 183 281 432 661
553 845 120 184 271 414 334 510 63 96 247 378 409 625 384 586 596 910 700
1067 l84 128 -36 167 c-19 93 -204 978 -410 1968 -207 990 -393 1886 -415
1990 -22 105 -60 285 -84 400 -67 325 -303 1452 -319 1530 -8 39 -40 192 -71
340 -154 737 -234 1123 -285 1365 -62 294 -140 669 -150 720 -5 25 -27 131
-49 235 -22 105 -227 1088 -456 2185 -229 1097 -458 2198 -510 2445 -115 552
-221 1060 -320 1538 -42 199 -85 405 -96 457 -11 52 -85 408 -165 790 -80 382
-161 769 -180 860 -19 91 -52 251 -74 355 -44 215 -110 528 -170 815 -23 107
-45 215 -50 240 -5 25 -27 133 -50 240 -23 107 -45 215 -50 240 -5 25 -27 133
-50 240 -41 196 -75 356 -215 1030 -69 332 -94 444 -80 350z"/>
<path d="M23562 33640 c0 -14 2 -19 5 -12 2 6 2 18 0 25 -3 6 -5 1 -5 -13z"/>
<path d="M23571 33605 c-1 -6 44 -226 99 -490 56 -264 114 -543 130 -620 16
-77 95 -455 175 -840 81 -385 159 -763 175 -840 16 -77 45 -216 65 -310 58
-275 83 -394 145 -695 32 -157 77 -373 100 -480 22 -107 75 -357 116 -555 41
-198 84 -403 95 -455 11 -52 44 -212 74 -355 30 -143 248 -1189 485 -2325 237
-1136 453 -2171 480 -2300 141 -678 644 -3088 736 -3525 14 -66 40 -194 59
-285 19 -91 52 -250 74 -355 72 -344 1011 -4845 1057 -5065 24 -118 79 -381
121 -583 66 -316 75 -373 67 -405 -6 -20 -85 -149 -175 -287 -91 -137 -187
-284 -214 -325 -57 -88 -858 -1311 -1012 -1545 -148 -226 -341 -521 -425 -650
-40 -60 -127 -193 -193 -295 -67 -102 -160 -243 -206 -315 -47 -71 -172 -263
-279 -425 -106 -162 -254 -387 -327 -500 -74 -113 -216 -330 -316 -482 -100
-153 -263 -402 -362 -553 -99 -151 -253 -386 -343 -523 -279 -423 -269 -411
294 363 252 346 461 634 466 640 8 10 139 189 269 370 100 138 362 499 371
510 4 6 34 46 66 90 32 44 220 303 418 575 198 272 416 572 484 665 68 94 190
260 270 370 80 110 224 308 320 440 96 132 211 290 255 350 45 61 148 202 230
315 82 113 318 437 524 720 228 312 375 523 374 535 -1 11 -47 216 -103 455
-56 239 -128 552 -161 695 -33 143 -75 325 -94 405 -19 80 -91 390 -160 690
-69 300 -257 1108 -416 1795 -160 688 -323 1394 -364 1570 -41 176 -99 428
-130 560 -31 132 -89 384 -130 560 -69 298 -170 737 -540 2330 -80 347 -182
785 -226 975 -44 190 -111 480 -149 645 -66 285 -135 582 -390 1680 -300 1292
-406 1751 -460 1985 -32 140 -89 383 -125 540 -37 157 -115 497 -175 755 -60
259 -167 722 -239 1030 -180 777 -619 2669 -757 3265 -114 494 -122 524 -123
505z"/>
<path d="M23811 33574 c0 -11 3 -14 6 -6 3 7 2 16 -1 19 -3 4 -6 -2 -5 -13z"/>
<path d="M23821 33546 c-1 -5 89 -367 200 -805 110 -438 279 -1109 375 -1491
237 -939 458 -1816 619 -2455 74 -291 227 -899 340 -1350 113 -451 273 -1085
355 -1410 82 -324 221 -878 310 -1230 89 -352 221 -878 295 -1170 74 -291 231
-917 350 -1390 239 -952 525 -2086 970 -3850 79 -313 234 -930 345 -1370 111
-440 266 -1056 345 -1370 125 -495 258 -1023 555 -2204 49 -193 70 -295 67
-318 -4 -23 -63 -105 -199 -279 -220 -281 -257 -328 -457 -584 -79 -102 -183
-234 -231 -295 -48 -60 -194 -247 -325 -415 -131 -168 -262 -334 -290 -370
-28 -36 -117 -148 -196 -250 -80 -102 -300 -383 -490 -625 -368 -469 -714
-911 -894 -1141 -217 -278 -354 -453 -555 -709 -112 -143 -268 -341 -345 -440
-175 -224 -375 -480 -475 -606 -41 -53 -203 -260 -360 -460 -526 -670 -582
-747 -305 -419 72 85 257 304 411 485 154 182 406 479 559 660 369 435 364
430 678 799 150 176 373 439 497 585 124 146 327 385 451 531 124 146 375 443
559 660 418 493 406 479 733 864 150 176 373 439 497 585 124 146 331 390 459
541 637 750 756 892 759 908 2 13 -1098 4029 -1693 6182 -52 189 -109 396
-220 800 -153 555 -159 577 -370 1345 -53 193 -134 487 -180 655 -46 168 -120
438 -165 600 -45 162 -180 655 -301 1095 -121 440 -243 881 -270 980 -28 99
-77 277 -109 395 -32 118 -89 323 -125 455 -36 132 -86 312 -110 400 -38 140
-92 335 -315 1145 -27 96 -98 355 -158 575 -61 220 -167 607 -237 860 -70 253
-144 523 -165 600 -172 632 -1173 4265 -1180 4285 -4 14 -9 21 -9 16z"/>
<path d="M23881 32794 c0 -11 3 -14 6 -6 3 7 2 16 -1 19 -3 4 -6 -2 -5 -13z"/>
<path d="M23891 32754 c0 -11 3 -14 6 -6 3 7 2 16 -1 19 -3 4 -6 -2 -5 -13z"/>
<path d="M23901 32724 c-1 -5 33 -156 74 -335 42 -178 132 -565 200 -859 187
-810 442 -1906 481 -2075 19 -82 53 -229 75 -325 22 -96 62 -269 89 -385 27
-115 78 -336 114 -490 245 -1056 593 -2559 677 -2920 54 -236 110 -477 124
-535 13 -58 77 -330 140 -605 142 -614 262 -1132 440 -1895 74 -322 167 -720
205 -885 116 -503 329 -1422 360 -1555 16 -69 59 -251 94 -405 119 -510 644
-2775 705 -3040 33 -143 126 -543 206 -890 80 -346 220 -949 311 -1340 90
-390 180 -780 200 -866 39 -165 40 -208 6 -245 -9 -11 -31 -40 -48 -64 -17
-25 -250 -346 -519 -715 -268 -368 -516 -708 -550 -755 -33 -47 -160 -220
-280 -385 -120 -165 -264 -363 -320 -440 -56 -77 -207 -284 -335 -460 -128
-176 -510 -700 -849 -1165 -338 -465 -856 -1176 -1150 -1580 -536 -736 -683
-939 -723 -995 -64 -90 54 57 444 555 525 673 542 693 665 850 54 69 197 251
318 405 120 154 300 384 399 510 99 127 245 313 325 415 80 102 177 226 216
275 39 50 120 153 180 230 174 224 392 502 474 605 42 52 79 99 84 105 7 10
248 318 480 615 66 85 169 216 227 290 59 74 280 356 491 625 211 270 499 638
641 819 142 181 258 338 258 349 0 18 -177 727 -600 2402 -71 281 -206 816
-300 1190 -94 374 -234 928 -310 1230 -76 303 -232 919 -345 1370 -392 1560
-732 2909 -965 3830 -65 259 -216 857 -335 1330 -119 473 -285 1135 -370 1470
-229 908 -438 1736 -610 2420 -199 790 -441 1751 -705 2800 -398 1584 -388
1541 -389 1519z"/>
<path d="M24180 32697 c0 -3 129 -473 286 -1044 157 -571 298 -1085 314 -1143
16 -58 59 -213 95 -345 37 -132 80 -289 96 -350 16 -60 47 -173 69 -250 21
-77 88 -320 149 -540 148 -539 320 -1166 387 -1410 31 -110 80 -288 109 -395
97 -351 164 -597 219 -797 263 -954 373 -1352 467 -1698 33 -121 89 -323 124
-450 35 -126 121 -437 190 -690 70 -253 163 -590 207 -750 43 -159 90 -328
103 -375 78 -284 123 -447 195 -710 45 -162 101 -367 125 -455 24 -88 66 -241
93 -340 28 -99 121 -436 207 -750 86 -313 192 -698 235 -855 631 -2281 1700
-6186 1700 -6209 0 -31 -28 -67 -369 -466 -80 -93 -153 -179 -162 -190 -17
-20 -165 -195 -1060 -1250 -261 -308 -578 -681 -704 -830 -126 -148 -281 -331
-344 -405 -64 -74 -123 -144 -132 -155 -9 -11 -144 -171 -301 -355 -156 -184
-461 -544 -678 -800 -217 -256 -461 -544 -543 -640 -82 -96 -179 -211 -217
-255 -37 -44 -159 -188 -271 -320 -113 -132 -214 -251 -226 -265 -56 -66 -318
-378 -336 -400 -61 -74 108 108 407 440 186 206 357 395 380 420 23 25 125
137 227 250 102 113 489 540 860 950 371 410 1034 1144 1474 1630 440 486
1126 1244 1524 1685 398 440 757 837 798 881 40 45 73 87 73 94 0 13 -40 153
-145 505 -30 99 -187 632 -350 1185 -163 553 -347 1178 -410 1390 -62 212
-195 662 -295 1000 -100 338 -199 674 -220 745 -22 72 -98 330 -170 575 -72
245 -169 573 -215 730 -207 698 -327 1104 -425 1440 -49 166 -597 2023 -690
2335 -49 165 -123 417 -165 560 -42 143 -89 303 -105 355 -26 85 -51 172 -150
510 -40 135 -486 1646 -575 1945 -40 138 -144 489 -230 780 -86 292 -173 589
-195 660 -21 72 -114 384 -205 695 -92 311 -243 824 -336 1140 -175 590 -283
956 -440 1490 -50 168 -106 357 -124 420 -19 63 -71 239 -115 390 -45 151
-109 367 -142 480 -54 184 -68 227 -68 207z"/>
<path d="M20677 30737 c-196 -1274 -546 -3552 -762 -4962 -102 -665 -278
-1808 -390 -2540 -112 -731 -297 -1933 -410 -2670 -113 -737 -280 -1821 -370
-2410 -90 -588 -261 -1702 -380 -2475 -119 -773 -254 -1654 -301 -1959 l-85
-554 1738 -4173 c956 -2294 1740 -4171 1741 -4169 2 2 -76 266 -173 587 -97
321 -221 729 -275 908 -54 179 -186 615 -293 970 -232 767 -262 863 -557 1840
-126 415 -273 904 -329 1085 -55 182 -151 501 -214 710 -63 209 -242 798 -396
1308 -209 690 -280 937 -276 960 3 18 41 388 85 822 89 874 138 1359 175 1720
14 132 106 1039 205 2015 205 2016 243 2388 270 2655 11 105 69 678 130 1275
60 597 126 1238 145 1425 19 187 55 543 80 790 25 248 54 536 65 640 11 105
35 345 55 535 225 2219 278 2742 295 2905 11 105 40 393 65 640 25 248 52 513
60 590 105 1018 245 2418 242 2421 -1 2 -65 -398 -140 -889z"/>
<path d="M19910 30927 c-73 -177 -251 -605 -395 -952 -144 -346 -322 -774
-395 -950 -73 -176 -215 -520 -317 -765 -102 -245 -212 -510 -245 -590 -33
-80 -82 -197 -108 -260 -46 -109 -129 -311 -585 -1410 -108 -261 -219 -528
-246 -592 -75 -179 -131 -316 -317 -763 -93 -225 -219 -529 -280 -675 -60
-146 -149 -359 -197 -475 -48 -115 -109 -262 -135 -325 -26 -63 -86 -207 -133
-320 -141 -340 -300 -723 -479 -1155 -94 -225 -220 -529 -280 -675 -61 -146
-192 -463 -293 -705 -100 -242 -260 -627 -355 -855 -95 -228 -232 -559 -305
-735 -73 -176 -183 -441 -245 -590 -62 -148 -189 -454 -282 -680 -94 -225
-220 -529 -280 -675 -60 -146 -152 -366 -203 -490 -176 -422 -492 -1185 -565
-1360 -40 -96 -89 -215 -110 -265 -63 -148 -500 -1202 -547 -1318 -32 -79 -41
-112 -34 -125 13 -24 7950 -7957 7955 -7951 2 2 -64 78 -146 169 -83 91 -187
206 -232 255 -129 144 -883 978 -1211 1340 -165 182 -320 353 -345 381 -77 86
-861 953 -1175 1299 -165 182 -320 353 -345 381 -77 86 -861 953 -1175 1299
-165 182 -320 353 -345 381 -65 72 -821 909 -1184 1308 -301 333 -365 404
-749 828 -143 158 -189 216 -193 240 -4 25 19 101 101 323 58 160 114 313 125
340 11 28 87 237 171 465 262 717 351 961 529 1445 95 259 221 603 280 765 60
162 147 401 195 530 48 129 115 314 150 410 35 96 127 348 205 560 78 212 249
680 381 1040 132 360 282 770 334 910 51 140 150 410 220 600 69 190 144 392
165 450 86 235 183 499 273 745 53 143 195 532 317 865 122 333 277 756 345
940 68 184 225 614 350 955 125 341 282 771 350 955 220 600 455 1240 550
1500 51 140 150 410 220 600 70 190 162 442 205 560 43 118 142 388 220 600
78 212 184 500 235 640 51 140 159 435 240 655 80 220 198 542 262 715 63 173
133 362 154 419 75 198 32 109 -101 -212z"/>
<path d="M20538 30697 c-26 -133 -90 -465 -143 -737 -52 -272 -134 -691 -180
-930 -46 -239 -145 -750 -220 -1135 -75 -385 -165 -848 -200 -1030 -62 -320
-161 -833 -340 -1755 -47 -245 -117 -605 -155 -800 -128 -661 -198 -1023 -375
-1935 -97 -500 -198 -1022 -225 -1160 -27 -137 -99 -509 -160 -825 -61 -316
-128 -665 -150 -775 -22 -110 -82 -423 -135 -695 -53 -272 -125 -643 -160
-825 -35 -181 -75 -388 -89 -460 -14 -71 -68 -353 -121 -625 -53 -272 -123
-632 -155 -800 -75 -387 -107 -551 -224 -1155 -52 -269 -156 -805 -231 -1189
l-135 -699 191 -376 c106 -207 242 -475 304 -596 62 -121 190 -373 285 -560
95 -187 234 -461 310 -610 76 -148 269 -529 430 -845 161 -316 352 -692 425
-835 73 -143 269 -528 435 -855 166 -327 362 -712 435 -855 73 -143 218 -429
323 -635 105 -206 270 -530 367 -720 96 -190 226 -445 287 -567 62 -122 114
-220 116 -219 2 2 -713 1722 -1588 3822 -1032 2478 -1591 3831 -1592 3854 0
19 61 433 136 920 127 822 307 1992 771 5015 101 660 281 1832 400 2605 119
773 281 1830 361 2350 79 520 180 1177 224 1460 44 283 145 943 225 1465 292
1904 536 3495 571 3719 19 125 34 229 32 231 -2 2 -24 -105 -50 -238z"/>
<path d="M20297 30172 c-294 -1279 -458 -1991 -467 -2027 -6 -22 -104 -449
-219 -950 -180 -782 -577 -2507 -757 -3290 -31 -132 -71 -305 -89 -385 -19
-80 -73 -314 -120 -520 -47 -206 -101 -440 -120 -520 -19 -80 -104 -451 -190
-825 -86 -374 -171 -745 -190 -825 -37 -158 -336 -1458 -526 -2285 -65 -286
-123 -538 -129 -560 -15 -61 -67 -287 -205 -890 -69 -302 -148 -644 -175 -760
-27 -115 -81 -349 -120 -520 -110 -478 -130 -565 -145 -630 -8 -33 -74 -316
-145 -630 -72 -313 -174 -754 -226 -978 l-94 -409 129 -216 c70 -120 238 -401
371 -627 133 -225 307 -518 385 -650 430 -726 642 -1084 820 -1385 108 -184
217 -366 240 -405 23 -38 65 -108 92 -155 27 -47 116 -197 198 -335 81 -137
248 -419 370 -625 122 -206 289 -487 370 -625 82 -137 177 -299 213 -360 36
-60 144 -243 240 -405 96 -162 233 -394 305 -515 71 -121 171 -290 222 -375
154 -259 410 -692 439 -742 16 -27 30 -48 33 -48 4 0 -178 361 -517 1025 -65
127 -191 374 -280 550 -89 176 -225 442 -300 590 -76 149 -267 524 -425 835
-299 589 -502 988 -735 1445 -76 149 -207 407 -293 575 -196 386 -673 1324
-869 1710 -83 162 -200 392 -260 510 l-109 215 106 540 c95 486 161 824 340
1750 30 160 87 450 125 645 38 195 108 555 155 800 47 245 117 605 155 800 38
195 107 553 154 795 47 242 148 764 225 1160 77 396 151 779 165 850 25 135
228 1182 341 1760 35 182 116 600 180 930 64 330 136 701 160 825 24 124 85
437 135 695 50 259 120 621 156 805 161 829 342 1763 469 2420 47 245 117 605
155 800 38 195 124 636 190 980 67 344 132 683 146 754 14 70 24 130 22 131
-2 2 -47 -188 -101 -423z"/>
<path d="M20051 29644 c0 -11 3 -14 6 -6 3 7 2 16 -1 19 -3 4 -6 -2 -5 -13z"/>
<path d="M19791 28642 c-140 -537 -368 -1418 -507 -1957 -140 -539 -300 -1155
-355 -1370 -191 -734 -237 -911 -348 -1340 -61 -236 -286 -1105 -500 -1930
-213 -825 -410 -1583 -436 -1685 -26 -102 -57 -223 -70 -270 -13 -47 -134
-515 -270 -1040 -135 -525 -266 -1029 -290 -1120 -24 -91 -73 -280 -109 -420
-36 -140 -104 -403 -151 -585 -122 -468 -281 -1083 -465 -1795 -88 -338 -238
-916 -334 -1285 -126 -488 -171 -675 -164 -688 8 -16 305 -470 811 -1242 105
-159 224 -342 266 -405 41 -63 169 -259 284 -435 115 -176 257 -393 316 -483
58 -89 160 -244 226 -345 66 -100 162 -248 214 -327 52 -80 167 -255 256 -390
88 -135 208 -317 265 -405 57 -88 177 -270 265 -405 88 -135 291 -444 450
-687 160 -244 380 -580 490 -748 110 -168 362 -552 560 -854 198 -303 361
-548 363 -547 1 2 -60 109 -136 237 -76 129 -251 423 -387 654 -136 231 -290
490 -340 575 -51 85 -202 340 -335 565 -133 226 -307 518 -385 650 -78 132
-274 463 -435 735 -161 272 -372 628 -468 790 -97 162 -210 354 -252 425 -71
122 -513 867 -1237 2089 -238 401 -313 536 -313 561 0 18 90 421 199 896 207
896 498 2162 602 2614 33 143 66 287 74 320 8 33 66 285 129 560 63 275 124
538 135 585 11 47 90 391 176 765 86 374 171 745 190 825 19 80 151 656 295
1280 296 1288 315 1370 404 1755 36 154 169 732 296 1285 127 553 271 1178
320 1390 49 212 213 925 365 1585 152 660 291 1265 310 1345 126 539 285 1243
282 1246 -2 2 -117 -436 -256 -974z"/>
<path d="M19836 29332 c-38 -130 -156 -541 -263 -912 -107 -371 -241 -839
-299 -1040 -58 -201 -143 -495 -189 -655 -46 -159 -145 -504 -220 -765 -75
-261 -165 -574 -200 -695 -65 -226 -259 -897 -487 -1690 -71 -247 -181 -630
-244 -850 -181 -627 -425 -1475 -578 -2007 -241 -836 -301 -1044 -361 -1253
-35 -121 -111 -384 -169 -585 -57 -201 -171 -594 -251 -875 -214 -741 -363
-1258 -540 -1875 -86 -300 -202 -700 -256 -890 -55 -190 -179 -619 -275 -955
-97 -335 -207 -718 -245 -849 -38 -132 -69 -248 -69 -258 0 -10 71 -116 158
-234 86 -119 182 -250 212 -293 136 -187 708 -973 755 -1036 28 -38 109 -149
178 -245 70 -96 130 -179 135 -185 4 -5 57 -77 116 -160 60 -82 125 -172 146
-200 36 -49 180 -246 1081 -1485 251 -344 642 -881 870 -1195 229 -313 513
-705 633 -870 202 -277 253 -345 230 -305 -7 14 -124 193 -431 660 -59 91
-292 446 -517 790 -225 344 -527 805 -671 1025 -331 506 -741 1132 -1090 1665
-149 228 -323 494 -386 590 -64 96 -165 250 -225 343 -60 92 -159 243 -219
335 -416 632 -486 742 -491 774 -4 24 22 141 90 403 80 313 383 1483 501 1935
145 558 318 1228 714 2755 224 865 287 1108 387 1495 35 135 93 358 128 495
36 138 81 311 100 385 19 74 139 536 266 1025 126 490 266 1027 309 1195 44
168 120 463 170 655 50 193 140 539 200 770 60 231 183 708 274 1060 92 352
288 1110 436 1685 149 575 282 1088 296 1140 14 52 66 253 116 445 49 193 126
489 170 658 44 170 79 310 77 313 -2 2 -35 -103 -72 -234z"/>
<path d="M19635 29478 c-10 -29 -128 -375 -262 -768 -134 -393 -316 -926 -405
-1185 -88 -258 -179 -526 -203 -595 -40 -117 -285 -833 -429 -1255 -35 -104
-127 -374 -205 -600 -77 -225 -169 -495 -205 -600 -35 -104 -127 -374 -205
-600 -77 -225 -170 -498 -206 -605 -90 -264 -337 -986 -390 -1140 -24 -69
-111 -323 -193 -565 -83 -242 -214 -627 -292 -855 -78 -228 -177 -518 -220
-645 -43 -126 -133 -390 -200 -585 -167 -486 -239 -698 -325 -950 -40 -118
-102 -300 -138 -405 -80 -233 -323 -943 -422 -1235 -40 -118 -132 -388 -205
-600 -72 -212 -165 -482 -205 -600 -40 -118 -132 -388 -205 -600 -72 -212
-165 -482 -205 -600 -40 -118 -132 -388 -205 -600 -72 -212 -157 -460 -188
-551 l-56 -166 25 -30 c13 -17 110 -131 214 -254 210 -247 573 -674 814 -959
420 -496 903 -1065 976 -1150 44 -52 169 -198 276 -325 107 -126 325 -383 484
-570 158 -187 347 -410 419 -494 72 -85 208 -245 301 -355 94 -111 348 -410
565 -666 433 -510 743 -876 1035 -1219 104 -123 206 -242 225 -266 58 -70 413
-488 438 -515 20 -21 -63 90 -193 259 -44 57 -557 711 -640 816 -92 116 -403
513 -524 669 -51 67 -117 150 -146 186 -28 36 -127 162 -219 280 -92 118 -173
222 -179 230 -7 8 -95 121 -197 250 -101 129 -339 433 -529 675 -190 242 -410
523 -490 625 -79 102 -168 214 -196 250 -29 36 -159 202 -290 370 -131 168
-335 429 -454 580 -118 151 -247 316 -286 365 -39 50 -170 216 -290 370 -120
154 -266 341 -325 415 -300 380 -318 405 -324 444 -6 38 18 119 326 1096 49
157 118 377 153 490 35 113 125 401 200 640 75 239 147 469 160 510 74 237
139 447 278 890 86 272 176 560 200 640 25 80 230 735 455 1455 226 721 742
2370 1147 3665 405 1295 817 2612 915 2925 98 314 339 1083 535 1710 196 627
395 1262 442 1410 46 149 113 362 148 475 35 113 82 263 104 334 23 71 39 131
37 133 -2 3 -12 -20 -21 -49z"/>
<path d="M19370 28217 c-310 -994 -307 -983 -505 -1617 -244 -781 -540 -1726
-570 -1820 -13 -41 -81 -257 -150 -480 -70 -223 -176 -562 -236 -755 -184
-585 -235 -748 -889 -2840 -870 -2782 -1799 -5752 -2099 -6711 -138 -441 -251
-809 -251 -817 0 -9 26 -49 58 -89 32 -40 150 -190 262 -333 112 -143 292
-372 400 -510 197 -251 444 -567 944 -1205 148 -190 302 -385 341 -435 84
-106 256 -326 489 -625 92 -118 173 -222 179 -230 58 -73 740 -941 831 -1059
33 -42 189 -240 346 -441 614 -783 1095 -1397 1128 -1440 101 -132 235 -300
240 -300 2 0 0 6 -5 13 -21 27 -131 177 -363 497 -400 550 -1075 1477 -1524
2093 -232 318 -439 604 -462 635 -22 31 -226 311 -452 622 -227 311 -584 801
-794 1090 -586 805 -867 1191 -904 1240 -234 317 -314 435 -314 465 0 18 18
92 39 166 39 132 163 565 387 1344 64 220 154 533 201 695 47 162 138 480 203
705 238 828 474 1647 555 1930 46 160 113 391 149 515 97 336 360 1251 516
1795 156 540 473 1644 615 2135 51 179 141 489 199 690 57 201 139 484 181
630 195 677 253 877 380 1320 75 261 166 576 201 700 36 124 155 538 265 920
110 382 238 826 284 985 264 916 336 1168 332 1171 -2 2 -95 -290 -207 -649z"/>
<path d="M19248 28727 c-15 -40 -84 -227 -153 -417 -70 -190 -160 -435 -200
-545 -40 -110 -139 -380 -220 -600 -81 -220 -181 -492 -222 -605 -41 -113
-131 -358 -200 -545 -69 -187 -167 -455 -218 -595 -51 -140 -159 -435 -240
-655 -193 -527 -237 -648 -405 -1105 -77 -212 -149 -407 -160 -435 -10 -27
-119 -322 -240 -655 -122 -333 -248 -677 -280 -765 -213 -582 -344 -939 -365
-995 -13 -36 -48 -132 -79 -215 -30 -82 -111 -303 -179 -490 -69 -187 -168
-457 -220 -600 -53 -143 -143 -390 -202 -550 -59 -159 -134 -364 -167 -455
-33 -91 -90 -248 -128 -350 -118 -320 -321 -874 -550 -1500 -121 -333 -239
-652 -260 -710 -21 -58 -105 -285 -185 -505 -81 -220 -162 -440 -180 -490 -18
-49 -133 -362 -255 -695 -122 -333 -260 -709 -307 -837 -47 -127 -83 -236 -82
-241 4 -11 72 -86 549 -613 383 -422 612 -676 1275 -1409 291 -322 546 -603
566 -625 87 -95 473 -522 959 -1060 288 -319 541 -598 561 -620 99 -109 356
-393 530 -585 407 -452 756 -837 814 -900 33 -36 94 -103 136 -150 213 -238
371 -410 377 -410 3 0 -6 12 -20 27 -14 16 -140 163 -279 328 -457 539 -693
817 -848 1000 -84 99 -250 295 -369 435 -202 239 -255 301 -465 548 -74 85
-693 816 -1226 1446 -103 121 -254 298 -336 395 -83 97 -213 250 -290 341
-134 160 -213 253 -388 458 -46 53 -299 351 -562 662 -263 311 -501 591 -527
622 -29 34 -51 70 -54 90 -6 32 16 101 201 638 24 69 111 325 195 570 83 245
215 630 292 855 77 226 175 514 218 640 43 127 133 390 200 585 167 486 239
698 325 950 40 118 102 301 138 405 80 233 323 943 422 1235 40 118 132 388
205 600 72 212 165 482 205 600 40 118 132 388 205 600 72 212 165 482 205
600 40 118 132 388 205 600 72 212 165 482 205 600 40 118 98 288 129 378 116
337 225 658 426 1247 37 110 130 380 205 600 75 220 170 497 210 615 41 118
133 388 205 600 73 212 165 482 205 600 40 118 133 388 205 600 73 212 194
567 270 790 76 223 164 479 195 569 56 166 72 231 23 98z"/>
</g>
</svg>
