<?xml version="1.0" standalone="no"?>
<!DOCTYPE svg PUBLIC "-//W3C//DTD SVG 20010904//EN"
 "http://www.w3.org/TR/2001/REC-SVG-20010904/DTD/svg10.dtd">
<svg version="1.0" xmlns="http://www.w3.org/2000/svg"
 width="735.000000pt" height="735.000000pt" viewBox="0 0 735.000000 735.000000"
 preserveAspectRatio="xMidYMid meet">
<metadata>
Created by potrace 1.14, written by Peter Selinger 2001-2017
</metadata>
<g transform="translate(0.000000,735.000000) scale(0.100000,-0.100000)"
fill="#000000" stroke="none">
<path d="M0 3675 l0 -3675 3675 0 3675 0 0 3675 0 3675 -3675 0 -3675 0 0
-3675z m3984 2808 c192 -585 954 -2886 1167 -3529 126 -380 229 -698 229 -705
0 -8 -371 -385 -825 -839 l-825 -825 -831 831 -831 831 197 474 c108 261 299
722 425 1024 513 1236 636 1533 752 1813 104 249 125 292 142 292 50 -1 50 5
12 -366 -20 -192 -99 -970 -176 -1729 -77 -759 -142 -1408 -146 -1442 -6 -60
1 -87 221 -815 125 -414 230 -756 234 -760 5 -6 268 848 445 1444 22 76 26 9
-35 738 -16 195 -38 465 -49 600 -11 135 -33 409 -50 610 -68 827 -210 2567
-210 2574 0 5 50 32 67 36 1 0 40 -116 87 -257z"/>
<path d="M4021 6137 c-1 -5 44 -162 100 -350 55 -188 269 -911 474 -1607 205
-696 417 -1411 469 -1590 53 -178 96 -331 96 -338 0 -7 -252 -291 -559 -630
-307 -339 -557 -619 -554 -622 2 -2 287 279 633 626 l630 629 -84 255 c-47
140 -193 581 -325 980 -612 1851 -880 2654 -880 2647z"/>
<path d="M3902 6060 c0 -19 2 -27 5 -17 2 9 2 25 0 35 -3 9 -5 1 -5 -18z"/>
<path d="M3911 5988 c0 -15 10 -163 24 -330 25 -301 52 -631 100 -1218 13
-168 40 -498 60 -735 19 -236 44 -542 55 -680 12 -137 30 -353 40 -480 11
-126 20 -248 20 -271 0 -25 -81 -309 -205 -719 -113 -373 -204 -679 -202 -681
2 -2 132 307 290 686 l287 689 -40 328 c-23 180 -77 618 -120 973 -44 355
-110 884 -146 1175 -110 892 -162 1291 -163 1263z"/>
<path d="M3952 5875 c0 -16 2 -22 5 -12 2 9 2 23 0 30 -3 6 -5 -1 -5 -18z"/>
<path d="M3961 5827 c-1 -17 16 -155 158 -1307 98 -787 193 -1556 241 -1945
l40 -330 -260 -624 c-143 -343 -259 -625 -258 -627 2 -1 53 95 113 214 61 120
204 402 320 629 l209 411 -37 239 c-20 131 -82 528 -137 883 -56 355 -123 787
-150 960 -194 1242 -238 1518 -239 1497z"/>
<path d="M3992 5790 c0 -14 2 -19 5 -12 2 6 2 18 0 25 -3 6 -5 1 -5 -13z"/>
<path d="M4002 5735 c0 -16 2 -22 5 -12 2 9 2 23 0 30 -3 6 -5 -1 -5 -18z"/>
<path d="M4011 5689 c0 -8 64 -431 144 -940 318 -2035 385 -2469 385 -2490 0
-19 -339 -698 -548 -1099 -36 -69 -60 -120 -54 -115 23 22 712 1197 712 1215
0 17 -168 928 -510 2770 -116 625 -127 681 -129 659z"/>
<path d="M4061 5554 c0 -11 3 -14 6 -6 3 7 2 16 -1 19 -3 4 -6 -2 -5 -13z"/>
<path d="M4091 5544 c0 -11 3 -14 6 -6 3 7 2 16 -1 19 -3 4 -6 -2 -5 -13z"/>
<path d="M4141 5544 c0 -11 3 -14 6 -6 3 7 2 16 -1 19 -3 4 -6 -2 -5 -13z"/>
<path d="M4072 5510 c0 -14 2 -19 5 -12 2 6 2 18 0 25 -3 6 -5 1 -5 -13z"/>
<path d="M4102 5500 c0 -14 2 -19 5 -12 2 6 2 18 0 25 -3 6 -5 1 -5 -13z"/>
<path d="M4151 5504 c0 -11 3 -14 6 -6 3 7 2 16 -1 19 -3 4 -6 -2 -5 -13z"/>
<path d="M4081 5473 c-1 -7 69 -387 154 -845 85 -458 217 -1174 295 -1590 77
-416 140 -767 140 -779 0 -17 -422 -744 -649 -1119 -8 -14 -10 -20 -4 -15 11
10 713 1078 731 1112 7 13 -8 103 -50 303 -32 157 -176 845 -319 1530 -294
1407 -297 1420 -298 1403z"/>
<path d="M4161 5477 c-1 -5 37 -158 83 -340 47 -183 193 -764 326 -1292 133
-528 277 -1101 321 -1274 44 -172 78 -319 75 -327 -4 -10 -331 -430 -785
-1009 -8 -11 -4 -9 11 5 35 33 848 992 855 1007 3 7 -31 144 -75 305 -305
1112 -794 2887 -802 2908 -4 14 -9 21 -9 17z"/>
<path d="M4111 5465 c-1 -6 12 -73 28 -150 16 -77 100 -477 186 -890 86 -412
224 -1071 306 -1464 l149 -715 -217 -330 c-312 -477 -407 -625 -378 -591 13
17 171 231 351 477 l326 448 -61 262 c-33 145 -128 556 -211 913 -83 358 -223
961 -311 1340 -157 681 -167 720 -168 700z"/>
<path d="M4161 5354 c0 -11 3 -14 6 -6 3 7 2 16 -1 19 -3 4 -6 -2 -5 -13z"/>
<path d="M3552 5310 c0 -19 2 -27 5 -17 2 9 2 25 0 35 -3 9 -5 1 -5 -18z"/>
<path d="M4171 5314 c0 -11 3 -14 6 -6 3 7 2 16 -1 19 -3 4 -6 -2 -5 -13z"/>
<path d="M4231 5320 c0 -8 4 -24 9 -35 5 -13 9 -14 9 -5 0 8 -4 24 -9 35 -5
13 -9 14 -9 5z"/>
<path d="M4181 5274 c0 -11 3 -14 6 -6 3 7 2 16 -1 19 -3 4 -6 -2 -5 -13z"/>
<path d="M3313 3764 l-232 -1511 286 -687 c158 -377 288 -685 290 -683 1 2
-90 309 -203 683 l-206 679 11 115 c6 63 26 268 46 455 19 187 59 585 90 885
30 300 78 767 105 1039 28 272 50 504 48 515 -2 12 -107 -659 -235 -1490z"/>
<path d="M4251 5257 c-1 -4 98 -369 220 -810 121 -441 295 -1072 385 -1402 91
-330 176 -639 190 -687 13 -48 24 -94 24 -103 0 -13 -413 -509 -719 -864 -197
-228 254 261 754 817 l38 43 -46 157 c-107 367 -828 2809 -836 2832 -5 14 -10
21 -10 17z"/>
<path d="M4191 5243 c-1 -6 10 -58 24 -115 159 -667 664 -2875 660 -2885 -2
-8 -161 -229 -351 -491 -412 -566 -372 -511 -352 -492 9 8 187 234 397 503
l382 487 -126 503 c-343 1363 -626 2483 -629 2492 -3 6 -5 5 -5 -2z"/>
<path d="M3030 4387 c-194 -469 -472 -1138 -617 -1487 l-264 -634 648 -646
c356 -355 640 -636 631 -625 -9 11 -266 297 -572 635 -419 463 -556 620 -553
635 2 11 248 684 545 1494 298 811 540 1476 539 1478 -2 1 -162 -381 -357
-850z"/>
<path d="M3502 5160 c0 -14 2 -19 5 -12 2 6 2 18 0 25 -3 6 -5 1 -5 -13z"/>
<path d="M3444 4868 c-28 -144 -154 -792 -279 -1439 l-228 -1176 319 -626
c175 -344 319 -625 321 -623 1 1 -114 282 -257 624 l-259 622 220 1432 c121
787 218 1435 217 1440 -2 6 -26 -109 -54 -254z"/>
<path d="M3461 5094 c0 -11 3 -14 6 -6 3 7 2 16 -1 19 -3 4 -6 -2 -5 -13z"/>
<path d="M3131 3665 c-178 -773 -321 -1411 -318 -1419 9 -23 688 -1170 700
-1181 10 -10 -400 804 -531 1056 l-66 126 273 1408 c150 774 271 1409 269
1410 -2 2 -149 -628 -327 -1400z"/>
<path d="M3351 4864 c0 -11 3 -14 6 -6 3 7 2 16 -1 19 -3 4 -6 -2 -5 -13z"/>
<path d="M3135 3922 c-136 -526 -288 -1111 -336 -1299 -49 -188 -89 -352 -89
-363 0 -12 17 -47 39 -78 21 -31 186 -282 365 -557 287 -438 398 -602 328
-485 -393 663 -652 1105 -652 1117 0 8 135 600 300 1315 165 716 298 1303 297
1305 -2 1 -115 -428 -252 -955z"/>
<path d="M2975 3557 c-203 -705 -369 -1289 -369 -1297 0 -14 690 -970 699
-970 6 0 -19 39 -353 548 -257 392 -270 414 -262 445 84 311 660 2550 657
2553 -1 2 -169 -574 -372 -1279z"/>
<path d="M2842 3526 c-238 -696 -432 -1267 -432 -1270 0 -3 143 -173 317 -378
174 -205 375 -442 446 -525 71 -84 132 -153 135 -153 3 0 -2 8 -10 18 -8 9
-187 238 -398 507 -211 270 -389 498 -397 507 -13 15 30 159 382 1283 218 697
394 1269 392 1271 -2 2 -198 -565 -435 -1260z"/>
<path d="M3266 4674 c-4 -14 -5 -28 -3 -31 3 -2 8 8 11 23 4 14 5 28 3 31 -3
2 -8 -8 -11 -23z"/>
<path d="M3017 4162 c-706 -1925 -698 -1904 -685 -1921 27 -34 773 -858 812
-896 49 -48 78 -84 -367 442 -202 238 -372 441 -378 451 -11 18 96 341 722
2166 49 143 88 261 86 262 -2 2 -87 -225 -190 -504z"/>
<path d="M3092 4112 c-89 -284 -256 -818 -372 -1186 -115 -370 -206 -675 -201
-680 92 -122 764 -976 768 -976 3 0 -6 15 -19 33 -13 17 -174 238 -357 489
l-333 457 342 1187 c188 652 339 1188 337 1190 -2 2 -76 -229 -165 -514z"/>
</g>
</svg>
